HIERARCHY
ROOT root
{
	OFFSET 0.000000 0.000000 0.000000
	CHANNELS 6 Xposition Yposition Zposition Zrotation Yrotation Xrotation
	JOINT lhip
	{
		OFFSET 0.058581 -0.082280 -0.017664
		CHANNELS 3 Zrotation Yrotation Xrotation
		JOINT lknee
		{
			OFFSET 0.043451 -0.386469 0.008037
			CHANNELS 3 Zrotation Yrotation Xrotation
			JOINT lankle
			{
				OFFSET -0.014790 -0.426874 -0.037428
				CHANNELS 3 Zrotation Yrotation Xrotation
				JOINT ltoe
				{
					OFFSET 0.041054 -0.060286 0.122042
					CHANNELS 3 Zrotation Yrotation Xrotation
					End Site
					{
						OFFSET 0.000000 0.000000 0.000000
					}
				}
			}
		}
	}
	JOINT rhip
	{
		OFFSET -0.060310 -0.090513 -0.013543
		CHANNELS 3 Zrotation Yrotation Xrotation
		JOINT rknee
		{
			OFFSET -0.043257 -0.383688 -0.004843
			CHANNELS 3 Zrotation Yrotation Xrotation
			JOINT rankle
			{
				OFFSET 0.019056 -0.420046 -0.034562
				CHANNELS 3 Zrotation Yrotation Xrotation
				JOINT rtoe
				{
					OFFSET -0.034840 -0.062106 0.130323
					CHANNELS 3 Zrotation Yrotation Xrotation
					End Site
					{
						OFFSET 0.000000 0.000000 0.000000
					}
				}
			}
		}
	}
	JOINT lowerback
	{
		OFFSET 0.004439 0.124404 -0.038385
		CHANNELS 3 Zrotation Yrotation Xrotation
		JOINT upperback
		{
			OFFSET 0.004488 0.137956 0.026820
			CHANNELS 3 Zrotation Yrotation Xrotation
			JOINT chest
			{
				OFFSET -0.002265 0.056032 0.002855
				CHANNELS 3 Zrotation Yrotation Xrotation
				JOINT lowerneck
				{
					OFFSET -0.013390 0.211636 -0.033468
					CHANNELS 3 Zrotation Yrotation Xrotation
					JOINT upperneck
					{
						OFFSET 0.010113 0.088937 0.050410
						CHANNELS 3 Zrotation Yrotation Xrotation
						End Site
						{
							OFFSET 0.000000 0.000000 0.000000
						}
					}
				}
				JOINT lclavicle
				{
					OFFSET 0.071702 0.114000 -0.018898
					CHANNELS 3 Zrotation Yrotation Xrotation
					JOINT lshoulder
					{
						OFFSET 0.122921 0.045205 -0.019046
						CHANNELS 3 Zrotation Yrotation Xrotation
						JOINT lelbow
						{
							OFFSET 0.255332 -0.015649 -0.022946
							CHANNELS 3 Zrotation Yrotation Xrotation
							JOINT lwrist
							{
								OFFSET 0.265709 0.012698 -0.007375
								CHANNELS 3 Zrotation Yrotation Xrotation
								End Site
								{
									OFFSET 0.000000 0.000000 0.000000
								}
							}
						}
					}
				}
				JOINT rclavicle
				{
					OFFSET -0.082954 0.112472 -0.023707
					CHANNELS 3 Zrotation Yrotation Xrotation
					JOINT rshoulder
					{
						OFFSET -0.113228 0.046853 -0.008472
						CHANNELS 3 Zrotation Yrotation Xrotation
						JOINT relbow
						{
							OFFSET -0.260127 -0.014369 -0.031269
							CHANNELS 3 Zrotation Yrotation Xrotation
							JOINT rwrist
							{
								OFFSET -0.269108 0.006794 -0.006027
								CHANNELS 3 Zrotation Yrotation Xrotation
								End Site
								{
									OFFSET 0.000000 0.000000 0.000000
								}
							}
						}
					}
				}
			}
		}
	}
}
MOTION
Frames: 16
Frame Time: 0.033333
0.198035 0.219856 1.378034 -173.783079 -3.054870 93.865287 7.120541 1.491837 -57.993627 -6.862042 18.775770 69.087417 2.960144 7.259193 -6.951122 0.000000 -0.000000 0.000000 -4.470295 -8.760213 -27.565442 8.907906 -17.440952 38.493137 3.702033 -2.735379 -13.872638 0.000000 -0.000000 0.000000 2.758522 5.884242 33.278198 4.929211 -0.561173 -13.917534 1.967617 -0.708028 7.204437 3.946068 -4.925129 9.559801 1.822518 -7.450412 17.616209 -24.739937 1.550956 2.806440 -38.015544 0.062510 2.874639 21.916542 -28.766576 -8.116726 3.715266 -5.585347 0.634311 24.145248 2.608151 1.625573 22.473076 8.126765 -2.426127 -20.375960 39.881380 -8.907300 -0.034190 3.158677 -6.224941 
0.197255 0.231316 1.386539 -173.913560 -3.423173 93.212318 5.300469 1.348512 -56.997403 -7.471844 19.295843 60.105744 1.533740 7.003888 1.061040 0.000000 -0.000000 0.000000 -4.366151 -9.093486 -24.775276 8.396974 -17.004724 36.244110 3.230546 -2.560286 -13.527196 0.000000 -0.000000 0.000000 3.175551 6.251595 32.331518 4.763947 -0.952738 -13.419017 1.821297 -0.456704 7.262478 3.977575 -5.000533 10.408519 1.910888 -8.457755 18.203774 -24.767648 2.178994 2.387681 -36.774648 2.239068 2.380773 21.047942 -25.865939 -9.642930 3.392838 -4.936594 1.221272 24.397114 2.594242 1.209285 22.890647 8.661559 -1.970315 -21.078181 41.273447 -10.136955 -1.304940 3.366982 -6.121929 
0.197452 0.242567 1.392654 -174.139715 -3.624070 92.640229 3.545347 1.433094 -54.126835 -7.979415 19.864010 50.100183 -0.746522 6.973311 8.060901 0.000000 -0.000000 0.000000 -3.867481 -8.427144 -22.428611 7.929758 -16.212964 34.455867 2.555748 -3.490590 -13.753755 0.000000 -0.000000 0.000000 3.046987 6.293805 31.040192 4.794399 -1.036459 -12.356288 1.677293 -0.234931 7.047211 4.422886 -4.982543 10.943826 1.650506 -8.986269 19.322516 -24.761932 3.007500 1.988693 -35.514052 3.623730 1.724791 20.234788 -23.258343 -10.573849 2.628502 -5.219833 2.425038 24.795171 2.467110 0.912148 23.379179 9.276706 -1.233252 -21.701759 42.536514 -10.711613 -0.506666 3.807676 -5.893363 
0.198654 0.253894 1.395068 -174.390101 -3.692327 92.268888 1.630319 1.753412 -50.291709 -7.839376 20.200668 40.551857 -2.198976 7.814996 14.037328 0.000000 -0.000000 0.000000 -3.162608 -7.293334 -20.854773 7.323645 -15.444495 33.794385 1.743251 -4.578174 -14.701800 0.000000 -0.000000 0.000000 2.533744 6.048711 29.507615 4.908399 -0.980528 -11.087173 1.603661 -0.055589 6.397713 4.650863 -4.944705 12.099538 1.374307 -9.285237 19.519874 -24.765195 3.912686 1.991452 -34.365674 4.745689 1.177086 19.896463 -21.926819 -11.315816 1.131442 -4.698382 4.211098 25.190256 2.143600 0.926003 24.023720 9.559860 -0.372805 -21.833159 44.056186 -10.640333 0.093021 4.227512 -5.079222 
0.200563 0.265471 1.393466 -174.619054 -3.437783 91.661600 0.029687 2.636758 -46.063542 -7.150936 20.480824 33.030699 -2.933845 9.083396 18.059034 0.000000 -0.000000 0.000000 -1.867070 -5.528485 -19.420764 6.566288 -14.270415 33.936386 0.523239 -6.029705 -17.020122 0.000000 -0.000000 0.000000 2.016222 5.606118 28.269961 5.065816 -0.815887 -10.099421 1.696666 0.014221 5.849744 4.843898 -4.763817 13.282507 1.123524 -9.334185 19.655300 -24.906933 4.553902 2.005180 -33.183796 6.016945 0.660114 19.527020 -21.298310 -12.358756 -0.411615 -4.523627 5.515791 25.543857 1.912653 0.704389 24.246256 9.098515 0.681935 -21.353019 46.051069 -9.804001 0.624749 4.525274 -3.716699 
0.202983 0.277073 1.387177 -174.821242 -2.942513 90.889244 -0.778207 3.523322 -41.900645 -6.349320 21.008809 27.446500 -3.126817 10.886059 20.791102 0.000000 -0.000000 0.000000 -0.143942 -3.513676 -18.122897 5.637793 -13.105564 35.036268 -0.912849 -7.821738 -19.774079 0.000000 -0.000000 0.000000 1.502028 5.072814 27.225544 5.335187 -0.514348 -9.234247 1.842422 -0.052132 5.453906 5.194886 -4.424290 13.817405 0.672774 -9.534050 20.437551 -25.100558 5.062599 2.061208 -32.258651 6.982132 0.406860 19.420205 -20.878035 -13.401563 -1.394490 -4.576439 6.280687 25.947891 1.529296 0.448174 23.941667 8.227690 1.864415 -20.772788 48.155249 -8.445293 0.883301 5.062017 -2.709465 
0.206119 0.287807 1.377261 -174.928243 -2.192262 90.317986 -0.361250 2.946540 -38.039194 -6.263826 21.043950 22.164269 -2.373150 12.964444 23.651054 0.000000 -0.000000 0.000000 1.440043 -0.741167 -18.030630 4.779614 -13.382280 37.901912 -1.882629 -9.771454 -22.448546 0.000000 -0.000000 0.000000 0.889590 4.163026 26.198093 5.836989 0.217633 -8.388197 1.945935 -0.321017 5.194560 5.520842 -4.194523 13.583323 -0.169116 -9.172615 21.484947 -25.043153 5.686130 2.099011 -32.068717 7.110450 0.531259 19.891509 -20.086470 -14.689688 -3.196755 -4.368112 7.178798 26.186183 1.027435 -0.235606 23.578651 7.342336 3.417932 -20.745398 49.638558 -7.648948 2.477870 5.797931 -1.938201 
0.208699 0.299046 1.364642 -175.289486 -0.968411 89.489094 1.437558 2.147605 -34.996357 -6.229901 21.048539 19.581252 -2.217273 15.226355 25.953308 0.000000 -0.000000 0.000000 3.376092 1.864818 -17.990360 4.384615 -13.560718 41.232932 -2.130879 -11.692913 -24.649686 0.000000 -0.000000 0.000000 0.842119 3.445133 26.216779 6.297365 0.827702 -7.540264 2.178120 -0.531044 4.204875 5.856765 -3.505131 13.073476 -0.891005 -9.275775 22.747285 -24.673418 6.096246 2.067955 -32.857556 7.467438 0.441055 20.269482 -19.680423 -14.674076 -2.915439 -4.208655 6.737937 25.779121 0.464942 -0.300267 23.714036 6.374131 3.880943 -20.002012 50.885385 -5.937028 1.421548 5.920700 -3.064193 
0.211092 0.308049 1.350964 -175.651506 0.569901 90.132591 1.874768 4.483767 -33.790507 -5.958546 19.088505 17.380527 -0.054905 15.628999 29.489826 0.000000 -0.000000 0.000000 4.541530 4.039186 -19.244723 5.027045 -15.128007 43.808622 -3.313874 -12.786027 -26.207557 0.000000 -0.000000 0.000000 1.353822 2.389035 24.842554 6.627962 1.318326 -6.375710 2.154055 -0.718714 3.219088 5.698841 -3.511100 13.546554 -0.870252 -7.877302 22.463905 -25.422591 6.198216 1.998569 -32.515866 7.945724 0.127781 20.275023 -19.037164 -16.364504 -3.461011 -3.888433 6.902304 25.942538 0.164703 0.174935 22.893981 5.418852 3.743760 -20.058338 51.503901 -6.344716 3.262094 6.434726 -3.083210 
0.213337 0.318558 1.337737 -176.417791 1.709630 89.905081 3.646337 4.989507 -31.830774 -6.167884 19.808429 15.721361 0.029150 17.662354 30.096737 0.000000 -0.000000 0.000000 5.662339 4.158109 -19.586319 5.383217 -15.043376 46.848141 -3.182872 -12.543658 -26.891021 0.000000 -0.000000 0.000000 1.083579 1.956308 25.347502 7.050209 1.679667 -5.849341 2.491925 -0.745747 1.979766 5.974557 -2.757176 13.341813 -0.976059 -7.678877 22.799723 -25.176806 6.318393 2.292893 -33.566816 7.880330 -0.623687 20.206753 -18.692136 -15.040903 -4.077653 -3.646240 6.007494 25.548485 -0.237662 0.933582 22.997031 4.790004 2.699649 -19.138254 51.402422 -4.868573 2.121658 6.176011 -4.374287 
0.215274 0.326083 1.326000 -176.598905 2.604391 90.658746 4.257028 5.606813 -30.843039 -6.467383 20.205821 12.655947 0.566147 17.107635 31.742379 0.000000 -0.000000 0.000000 6.038666 5.040398 -21.717758 5.768104 -15.828193 50.656550 -2.978837 -12.542461 -27.778905 0.000000 -0.000000 0.000000 0.825191 1.408460 24.904627 7.307480 1.671951 -5.687140 2.687967 -0.776204 1.750862 6.235063 -2.769525 13.171212 -0.624017 -6.851092 22.450823 -25.703957 6.026409 1.964973 -33.418247 7.833770 -0.056499 19.945511 -18.934043 -15.717427 -2.904723 -3.327571 6.791216 25.712993 -0.406380 1.068201 22.757587 3.907603 2.718274 -19.629884 50.518398 -6.467168 2.832672 6.124788 -3.116356 
0.217084 0.334366 1.316250 -176.820302 3.558861 90.714357 4.473440 7.246935 -29.230371 -5.956060 21.408415 10.646015 0.559139 19.081926 33.354195 0.000000 -0.000000 0.000000 6.649127 5.338459 -22.734788 5.750692 -17.050159 53.986054 -2.702617 -11.964068 -27.751681 0.000000 -0.000000 0.000000 0.632045 0.941953 25.631859 7.494049 2.013059 -6.035786 2.880401 -0.968763 1.821793 6.805131 -2.491458 13.159420 -0.236636 -6.991839 22.189615 -25.994075 5.693267 2.021905 -33.773381 6.898434 0.032679 20.529040 -18.816764 -15.625359 -4.603556 -3.251286 6.327417 25.964190 -0.664356 1.218779 22.070757 3.013546 2.363761 -19.005034 49.486073 -5.631295 3.190515 6.020869 -3.080106 
0.218178 0.342570 1.308165 -177.082930 4.566672 91.119677 4.707137 8.937878 -28.648692 -5.976311 21.539977 9.044136 0.731215 18.951331 33.528993 0.000000 -0.000000 0.000000 7.145802 5.483283 -23.866540 5.563142 -18.350670 56.870665 -2.554041 -11.164290 -26.947725 0.000000 -0.000000 0.000000 0.906156 0.568100 26.174069 7.352486 2.018046 -6.240829 3.117781 -1.055401 1.442980 6.786306 -2.503507 13.723560 0.118708 -6.541155 21.439536 -26.312073 5.019980 1.866270 -33.876135 6.799641 0.370685 20.208944 -19.311529 -15.463046 -4.103457 -2.841592 6.169166 25.594890 -0.679473 1.495774 21.799370 1.984069 1.948695 -17.654832 48.395894 -4.746289 2.739902 5.686440 -2.823248 
0.218377 0.351329 1.301373 -177.441890 5.198130 91.656296 5.268995 9.325944 -28.123645 -5.980494 23.274120 8.358687 1.693097 19.020806 34.148619 0.000000 -0.000000 0.000000 7.027369 5.770491 -24.469337 5.672212 -19.653527 58.906027 -2.857901 -10.167624 -26.668829 0.000000 -0.000000 0.000000 0.723964 0.242882 25.933220 7.413184 2.204907 -5.802984 3.109700 -1.273885 1.295603 6.939133 -2.741302 13.588678 0.240131 -5.509840 21.601546 -26.694543 4.582328 1.795347 -34.115555 6.037811 0.908105 20.851353 -19.641267 -16.602356 -5.892879 -2.592653 6.711550 25.440048 -0.610212 1.415439 21.300381 1.032089 2.544329 -17.696095 46.932053 -4.887389 6.421757 5.615422 -1.975005 
0.218874 0.361552 1.294253 -177.678486 5.852018 92.207872 5.709114 10.172262 -28.119112 -5.686835 23.820854 8.809257 0.887544 19.813644 33.823309 0.000000 -0.000000 0.000000 7.567382 5.295581 -25.277800 5.172115 -20.062309 61.202983 -2.448506 -9.484070 -27.134316 0.000000 -0.000000 0.000000 0.497394 0.088178 26.250167 7.408424 2.186203 -6.140537 3.319070 -1.439100 1.023935 7.103439 -2.176974 13.660777 0.361332 -5.411437 21.726788 -26.401335 4.373244 1.851566 -35.094473 5.464845 0.972813 20.845546 -20.489112 -16.014244 -4.724385 -3.231947 5.662787 24.841663 -0.973311 1.851239 21.315833 0.517183 2.036506 -15.966065 46.043792 -3.392376 3.869301 5.393682 -2.486718 
0.219468 0.372066 1.287867 -177.799138 6.413646 93.381700 5.512743 11.352325 -28.355070 -5.325490 23.292895 9.242751 1.415167 19.331771 33.255800 0.000000 -0.000000 0.000000 7.788602 5.394472 -26.678234 5.003978 -20.914650 63.207331 -2.835099 -9.193827 -26.890943 0.000000 -0.000000 0.000000 0.271891 0.017622 25.527207 7.347118 2.107914 -6.185991 3.422801 -1.751210 0.872895 7.101044 -2.212890 13.631945 0.589369 -4.678902 21.508654 -26.841063 4.242933 1.973882 -35.216248 5.276585 1.243096 20.849042 -21.887174 -16.152767 -4.040737 -3.273157 6.032918 25.033025 -1.186051 1.867796 20.829365 -0.493355 2.077097 -15.301557 45.233013 -3.100677 4.358291 5.728916 -1.608826 
